REM DIRINDEX 1\2,1\3,1\4,1\5
REM DIRNAME cjc044,folder01,folder02,folder03,folder04
TITLE ""
FILE "1800_118.mp3" MP3
  TRACK 01 AUDIO
    TITLE "2:cjc044_3397"
    INDEX 01 00:00:00
  TRACK 02 AUDIO
    TITLE "0:"
    INDEX 01 00:01:01
  TRACK 03 AUDIO
    TITLE "3:cjc044_3398"
    INDEX 01 00:01:64
  TRACK 04 AUDIO
    TITLE "0:"
    INDEX 01 00:03:08
  TRACK 05 AUDIO
    TITLE "4:cjc044_3399"
    INDEX 01 00:03:66
  TRACK 06 AUDIO
    TITLE "0:"
    INDEX 01 00:05:01
  TRACK 07 AUDIO
    TITLE "5:cjc044_3400"
    INDEX 01 00:05:63
  TRACK 08 AUDIO
    TITLE "0:"
    INDEX 01 00:09:32
  TRACK 09 AUDIO
    TITLE "2:cjc044_3401"
    INDEX 01 00:11:13
  TRACK 10 AUDIO
    TITLE "0:"
    INDEX 01 00:12:36
  TRACK 11 AUDIO
    TITLE "3:cjc044_3402"
    INDEX 01 00:13:10
  TRACK 12 AUDIO
    TITLE "0:"
    INDEX 01 00:14:11
  TRACK 13 AUDIO
    TITLE "4:cjc044_3403"
    INDEX 01 00:14:70
  TRACK 14 AUDIO
    TITLE "0:"
    INDEX 01 00:16:16
  TRACK 15 AUDIO
    TITLE "5:cjc044_3404"
    INDEX 01 00:17:00
  TRACK 16 AUDIO
    TITLE "0:"
    INDEX 01 00:20:26
  TRACK 17 AUDIO
    TITLE "2:cjc044_3405"
    INDEX 01 00:22:11
  TRACK 18 AUDIO
    TITLE "0:"
    INDEX 01 00:23:28
  TRACK 19 AUDIO
    TITLE "3:cjc044_3406"
    INDEX 01 00:24:14
  TRACK 20 AUDIO
    TITLE "0:"
    INDEX 01 00:25:07
  TRACK 21 AUDIO
    TITLE "4:cjc044_3407"
    INDEX 01 00:25:62
  TRACK 22 AUDIO
    TITLE "0:"
    INDEX 01 00:27:06
  TRACK 23 AUDIO
    TITLE "5:cjc044_3408"
    INDEX 01 00:27:69
  TRACK 24 AUDIO
    TITLE "0:"
    INDEX 01 00:31:29
  TRACK 25 AUDIO
    TITLE "2:cjc044_3409"
    INDEX 01 00:33:13
  TRACK 26 AUDIO
    TITLE "0:"
    INDEX 01 00:34:22
  TRACK 27 AUDIO
    TITLE "3:cjc044_3410"
    INDEX 01 00:35:04
  TRACK 28 AUDIO
    TITLE "0:"
    INDEX 01 00:36:15
  TRACK 29 AUDIO
    TITLE "4:cjc044_3411"
    INDEX 01 00:36:68
  TRACK 30 AUDIO
    TITLE "0:"
    INDEX 01 00:38:04
  TRACK 31 AUDIO
    TITLE "5:cjc044_3412"
    INDEX 01 00:38:63
  TRACK 32 AUDIO
    TITLE "0:"
    INDEX 01 00:42:08
  TRACK 33 AUDIO
    TITLE "2:cjc044_3413"
    INDEX 01 00:43:62
  TRACK 34 AUDIO
    TITLE "0:"
    INDEX 01 00:44:67
  TRACK 35 AUDIO
    TITLE "3:cjc044_3414"
    INDEX 01 00:45:51
  TRACK 36 AUDIO
    TITLE "0:"
    INDEX 01 00:46:47
  TRACK 37 AUDIO
    TITLE "4:cjc044_3415"
    INDEX 01 00:47:28
  TRACK 38 AUDIO
    TITLE "0:"
    INDEX 01 00:48:34
  TRACK 39 AUDIO
    TITLE "5:cjc044_3416"
    INDEX 01 00:49:18
  TRACK 40 AUDIO
    TITLE "0:"
    INDEX 01 00:52:65
  TRACK 41 AUDIO
    TITLE "2:cjc044_3417"
    INDEX 01 00:54:48
  TRACK 42 AUDIO
    TITLE "0:"
    INDEX 01 00:55:44
  TRACK 43 AUDIO
    TITLE "3:cjc044_3418"
    INDEX 01 00:56:31
  TRACK 44 AUDIO
    TITLE "0:"
    INDEX 01 00:57:39
  TRACK 45 AUDIO
    TITLE "4:cjc044_3419"
    INDEX 01 00:58:22
  TRACK 46 AUDIO
    TITLE "0:"
    INDEX 01 00:59:22
  TRACK 47 AUDIO
    TITLE "5:cjc044_3420"
    INDEX 01 00:59:71
  TRACK 48 AUDIO
    TITLE "0:"
    INDEX 01 01:02:38
  TRACK 49 AUDIO
    TITLE "2:cjc044_3421"
    INDEX 01 01:04:15
  TRACK 50 AUDIO
    TITLE "0:"
    INDEX 01 01:05:13
  TRACK 51 AUDIO
    TITLE "3:cjc044_3422"
    INDEX 01 01:06:04
  TRACK 52 AUDIO
    TITLE "0:"
    INDEX 01 01:07:06
  TRACK 53 AUDIO
    TITLE "4:cjc044_3423"
    INDEX 01 01:07:61
  TRACK 54 AUDIO
    TITLE "0:"
    INDEX 01 01:08:60
  TRACK 55 AUDIO
    TITLE "5:cjc044_3424"
    INDEX 01 01:09:52
  TRACK 56 AUDIO
    TITLE "0:"
    INDEX 01 01:12:60
  TRACK 57 AUDIO
    TITLE "2:cjc044_3425"
    INDEX 01 01:14:43
  TRACK 58 AUDIO
    TITLE "0:"
    INDEX 01 01:15:52
  TRACK 59 AUDIO
    TITLE "3:cjc044_3426"
    INDEX 01 01:16:40
  TRACK 60 AUDIO
    TITLE "0:"
    INDEX 01 01:17:51
  TRACK 61 AUDIO
    TITLE "4:cjc044_3427"
    INDEX 01 01:18:33
  TRACK 62 AUDIO
    TITLE "0:"
    INDEX 01 01:19:42
  TRACK 63 AUDIO
    TITLE "5:cjc044_3428"
    INDEX 01 01:20:28
  TRACK 64 AUDIO
    TITLE "0:"
    INDEX 01 01:24:36
  TRACK 65 AUDIO
    TITLE "2:cjc044_3429"
    INDEX 01 01:26:23
  TRACK 66 AUDIO
    TITLE "0:"
    INDEX 01 01:27:34
  TRACK 67 AUDIO
    TITLE "3:cjc044_3430"
    INDEX 01 01:28:16
  TRACK 68 AUDIO
    TITLE "0:"
    INDEX 01 01:29:07
  TRACK 69 AUDIO
    TITLE "4:cjc044_3431"
    INDEX 01 01:29:70
  TRACK 70 AUDIO
    TITLE "0:"
    INDEX 01 01:31:02
  TRACK 71 AUDIO
    TITLE "5:cjc044_3432"
    INDEX 01 01:31:49
  TRACK 72 AUDIO
    TITLE "0:"
    INDEX 01 01:34:67
  TRACK 73 AUDIO
    TITLE "2:cjc044_3433"
    INDEX 01 01:36:56
  TRACK 74 AUDIO
    TITLE "0:"
    INDEX 01 01:37:60
  TRACK 75 AUDIO
    TITLE "3:cjc044_3434"
    INDEX 01 01:38:43
  TRACK 76 AUDIO
    TITLE "0:"
    INDEX 01 01:39:45
  TRACK 77 AUDIO
    TITLE "4:cjc044_3435"
    INDEX 01 01:40:29
  TRACK 78 AUDIO
    TITLE "0:"
    INDEX 01 01:41:34
  TRACK 79 AUDIO
    TITLE "5:cjc044_3436"
    INDEX 01 01:42:14
  TRACK 80 AUDIO
    TITLE "0:"
    INDEX 01 01:44:56
